<?xml version="1.0" encoding="UTF-8" standalone="no"?>
<svg width="290px" height="360px" viewBox="0 0 290 360" version="1.1" xmlns="http://www.w3.org/2000/svg" xmlns:xlink="http://www.w3.org/1999/xlink">
    <!-- Generator: Sketch 48.1 (47250) - http://www.bohemiancoding.com/sketch -->
    <title>4</title>
    <desc>Created with Sketch.</desc>
    <defs></defs>
    <g id="Page-1" stroke="none" stroke-width="1" fill="none" fill-rule="evenodd">
        <g id="4">
            <g id="Group-10">
                <g>
                    <rect id="Rectangle-7-Copy-20" fill="#FFFFFF" x="0" y="0" width="290" height="360"></rect>
                    <path d="M1.63727234e-14,280.602816 C1.63727234e-14,280.602816 29.1083066,313.35388 64.4520186,313.35388 C112.973407,313.35388 99.8349488,247.799575 148.941403,240.182529 C182.645889,234.954528 199.286995,278.181608 227.670148,246.306649 C256.053301,214.431689 290,214 290,214 L290,360 L0,360 L1.63727234e-14,280.602816 Z" id="Chart-#2" fill="#FFDF8C" opacity="0.100000001"></path>
                    <path d="M-1.08914853e-14,360 L-1.08914853e-14,294.680617 C-1.08914853e-14,294.680617 33.0307466,259 65.3398998,259 C113.756096,259 109.409059,322.269491 149.646116,322.269491 C189.883174,322.269491 188.919161,276.187032 228.204181,276.187032 C261.041645,276.187032 290,299.400284 290,299.400284 L289.999999,360 L-1.08914853e-14,360 Z" id="Chart-#1" fill="#FFDF8C" opacity="0.200000003"></path>
                </g>
            </g>
            <g id="Group-8-Copy-9" transform="translate(0.000000, 214.000000)"></g>
        </g>
    </g>
</svg>