<?xml version="1.0" encoding="UTF-8" standalone="no"?>
<svg width="277px" height="36px" viewBox="0 0 277 36" version="1.1" xmlns="http://www.w3.org/2000/svg" xmlns:xlink="http://www.w3.org/1999/xlink">
    <!-- Generator: Sketch 46.2 (44496) - http://www.bohemiancoding.com/sketch -->
    <title>Page 1</title>
    <desc>Created with Sketch.</desc>
    <defs>
        <polygon id="path-1" points="0 -0.000147368421 0 2.28185263 85.5618986 2.28185263 105.722159 22.4374316 255.96566 22.4374316 255.96566 20.1561684 106.666975 20.1561684 86.5074521 -0.000147368421"></polygon>
        <filter x="-2.7%" y="-22.3%" width="105.5%" height="162.4%" filterUnits="objectBoundingBox" id="filter-2">
            <feOffset dx="0" dy="2" in="SourceAlpha" result="shadowOffsetOuter1"></feOffset>
            <feGaussianBlur stdDeviation="2" in="shadowOffsetOuter1" result="shadowBlurOuter1"></feGaussianBlur>
            <feColorMatrix values="0 0 0 0 0.152941176   0 0 0 0 0.639215686   0 0 0 0 0.658823529  0 0 0 1 0" type="matrix" in="shadowBlurOuter1"></feColorMatrix>
        </filter>
        <filter x="-46.7%" y="-33.3%" width="193.3%" height="193.3%" filterUnits="objectBoundingBox" id="filter-3">
            <feOffset dx="0" dy="2" in="SourceAlpha" result="shadowOffsetOuter1"></feOffset>
            <feGaussianBlur stdDeviation="2" in="shadowOffsetOuter1" result="shadowBlurOuter1"></feGaussianBlur>
            <feColorMatrix values="0 0 0 0 0.152941176   0 0 0 0 0.639215686   0 0 0 0 0.658823529  0 0 0 1 0" type="matrix" in="shadowBlurOuter1" result="shadowMatrixOuter1"></feColorMatrix>
            <feMerge>
                <feMergeNode in="shadowMatrixOuter1"></feMergeNode>
                <feMergeNode in="SourceGraphic"></feMergeNode>
            </feMerge>
        </filter>
        <polygon id="path-4" points="14.5739041 0.729621053 14.5739041 14.7368421 0.564089315 14.7368421 0.564089315 0.729621053 14.5739041 0.729621053"></polygon>
    </defs>
    <g id="Page-2" stroke="none" stroke-width="1" fill="none" fill-rule="evenodd">
        <g id="Page-1" transform="translate(4.000000, 2.000000)">
            <g id="Fill-1">
                <use fill="black" fill-opacity="1" filter="url(#filter-2)" xlink:href="#path-1"></use>
                <use fill="#28DBE2" fill-rule="evenodd" xlink:href="#path-1"></use>
            </g>
            <g id="Group-4" filter="url(#filter-3)" transform="translate(254.260274, 13.105695)">
                <mask id="mask-5" fill="white">
                    <use xlink:href="#path-4"></use>
                </mask>
                <g id="Clip-3"></g>
                <path d="M2.84653589,7.73330526 C2.84653589,10.3365684 4.96463452,12.4549895 7.56914411,12.4549895 C10.1729167,12.4549895 12.2910153,10.3365684 12.2910153,7.73330526 C12.2910153,5.13004211 10.1729167,3.01162105 7.56914411,3.01162105 C4.96463452,3.01162105 2.84653589,5.13004211 2.84653589,7.73330526 M14.5741989,7.73330526 C14.5741989,11.5950947 11.4316893,14.7369895 7.56914411,14.7369895 C3.7065989,14.7369895 0.564089315,11.5950947 0.564089315,7.73330526 C0.564089315,3.87151579 3.7065989,0.729621053 7.56914411,0.729621053 C11.4316893,0.729621053 14.5741989,3.87151579 14.5741989,7.73330526" id="Fill-2" fill="#28DBE2" mask="url(#mask-5)"></path>
            </g>
        </g>
    </g>
</svg>